custom-analysis
version=1
nRows=5
nColumns=98
inDegrees=no

This file contains tibia displacement and acting force.

Units are S.I. units (seconds, meters, Newtons, ...)
Angles are in degrees.

endheader
time	APT	SIT	knee_angle	aACL_R_force	pACL_R_force	aPCL_R_force	pPCL_R_force	aMCL_R_force	mMCL_R_force	pMCL_R_force	aLCL_R_force	mLCL_R_force	pLCL_R_force	aPCL_L_force	pPCL_L_force	aMCL_L_force	aLCL_L_force	aACL_R_length	pACL_R_length	aPCL_R_length	pPCL_R_length	aMCL_R_length	mMCL_R_length	pMCL_R_length	aLCL_R_length	mLCL_R_length	pLCL_R_length	aPCL_L_length	pPCL_L_length	aMCL_L_length	aLCL_L_length	aACL_R_strain	pACL_R_strain	aPCL_R_strain	pPCL_R_strain	aMCL_R_strain	mMCL_R_strain	pMCL_R_strain	aLCL_R_strain	mLCL_R_strain	pLCL_R_strain	aPCL_L_strain	pPCL_L_strain	aMCL_L_strain	aLCL_L_strain	femur_lat_meniscii_r.femur_lat_r.force.X	femur_lat_meniscii_r.femur_lat_r.force.Y	femur_lat_meniscii_r.femur_lat_r.force.Z	femur_lat_meniscii_r.femur_lat_r.torque.X	femur_lat_meniscii_r.femur_lat_r.torque.Y	femur_lat_meniscii_r.femur_lat_r.torque.Z	femur_lat_meniscii_r.meniscus_lat_r.force.X	femur_lat_meniscii_r.meniscus_lat_r.force.Y	femur_lat_meniscii_r.meniscus_lat_r.force.Z	femur_lat_meniscii_r.meniscus_lat_r.torque.X	femur_lat_meniscii_r.meniscus_lat_r.torque.Y	femur_lat_meniscii_r.meniscus_lat_r.torque.Z	femur_med_meniscii_r.femur_med_r.force.X	femur_med_meniscii_r.femur_med_r.force.Y	femur_med_meniscii_r.femur_med_r.force.Z	femur_med_meniscii_r.femur_med_r.torque.X	femur_med_meniscii_r.femur_med_r.torque.Y	femur_med_meniscii_r.femur_med_r.torque.Z	femur_med_meniscii_r.meniscus_med_r.force.X	femur_med_meniscii_r.meniscus_med_r.force.Y	femur_med_meniscii_r.meniscus_med_r.force.Z	femur_med_meniscii_r.meniscus_med_r.torque.X	femur_med_meniscii_r.meniscus_med_r.torque.Y	femur_med_meniscii_r.meniscus_med_r.torque.Z	femur_med_tibia_r.tibia_upper_r.force.X	femur_med_tibia_r.tibia_upper_r.force.Y	femur_med_tibia_r.tibia_upper_r.force.Z	femur_med_tibia_r.tibia_upper_r.torque.X	femur_med_tibia_r.tibia_upper_r.torque.Y	femur_med_tibia_r.tibia_upper_r.torque.Z	femur_med_tibia_r.femur_med_r.force.X	femur_med_tibia_r.femur_med_r.force.Y	femur_med_tibia_r.femur_med_r.force.Z	femur_med_tibia_r.femur_med_r.torque.X	femur_med_tibia_r.femur_med_r.torque.Y	femur_med_tibia_r.femur_med_r.torque.Z	femur_lat_tibia_r.tibia_upper_r.force.X	femur_lat_tibia_r.tibia_upper_r.force.Y	femur_lat_tibia_r.tibia_upper_r.force.Z	femur_lat_tibia_r.tibia_upper_r.torque.X	femur_lat_tibia_r.tibia_upper_r.torque.Y	femur_lat_tibia_r.tibia_upper_r.torque.Z	femur_lat_tibia_r.femur_lat_r.force.X	femur_lat_tibia_r.femur_lat_r.force.Y	femur_lat_tibia_r.femur_lat_r.force.Z	femur_lat_tibia_r.femur_lat_r.torque.X	femur_lat_tibia_r.femur_lat_r.torque.Y	femur_lat_tibia_r.femur_lat_r.torque.Z	femur_lat_meniscii_force_r	femur_med_meniscii_force_r	femur_lat_tibia_force_r	femur_med_tibia_force_r
      0.10975321	      0.00838036	      0.00774683	     28.91557616	      7.18114878	    -12.94424138	     26.81018040	     61.12476958	      0.00000000	      0.00000000	    -39.24791030	      0.00000000	      0.00000000	      0.00000000	      0.00000000	      0.00000000	      0.00000001	      0.00000000	      0.03241464	      0.02534519	      0.03113353	      0.03024048	      0.05730415	      0.05950762	      0.05875008	      0.05345240	      0.05033715	      0.04673812	      0.01525851	      0.01651186	      0.06550154	      0.04489616	      0.04544818	      0.01143278	      0.00122932	      0.01180020	     -0.04536038	     -0.00478109	      0.00037603	     -0.04510408	     -0.10620741	     -0.10707473	      0.00000079	     -0.32847694	      0.00000060	     -0.00000086	     56.16741073	    280.99286759	     40.85230435	    -23.58044526	      1.45242030	     21.98624922	    -56.16741073	   -280.99286759	    -40.85230435	      8.55457675	     -1.98786685	      2.35560385	    -29.52613724	     63.61832472	      9.22629943	     -2.27519698	      0.69885259	    -12.08812770	     29.52613724	    -63.61832472	     -9.22629943	     -1.11799307	     -0.73097674	      1.45069808	   -101.27785417	   -503.49265688	    112.28869191	    -11.88002931	      2.49931190	      0.50927588	    101.27785417	    503.49265688	   -112.28869191	     55.86499965	     -1.56541820	     43.35010076	    -33.56900549	   -120.76631961	    -30.29560709	      4.09686614	     -1.18536613	      0.18578774	     33.56900549	    120.76631961	     30.29560709	    -15.42420405	      0.80529234	     13.88052821	    289.44892543	     70.74043131	    128.95427830	    525.70981502
      0.11070177	      0.00845652	      0.00788366	     29.35180407	      6.38588819	    -13.49014969	     24.92935441	     57.86767768	      0.00000000	      0.00000000	      0.00000000	      0.00000000	      0.00000000	      0.00000000	      0.00000000	      0.00000000	      0.00000001	      0.00000000	      0.03239339	      0.02531149	      0.03119935	      0.03028227	      0.05733536	      0.05949666	      0.05869548	      0.05343997	      0.05029729	      0.04667148	      0.01525851	      0.01651186	      0.06550154	      0.04489616	      0.04476263	      0.01008796	      0.00334620	      0.01319820	     -0.04484053	     -0.00496447	     -0.00055378	     -0.04532618	     -0.10691508	     -0.10834794	      0.00000079	     -0.32847694	      0.00000060	     -0.00000086	     61.94151136	    294.49429307	     38.80178525	    -23.04093676	      1.57430019	     24.30461589	    -61.94151136	   -294.49429307	    -38.80178525	      8.81688970	     -2.10485468	      2.42879947	    -28.48174535	     66.42607309	      9.73993938	     -2.41094821	      0.66944559	    -11.64335136	     28.48174535	    -66.42607309	     -9.73993938	     -1.17505219	     -0.71152943	      1.44410048	   -114.14973926	   -527.29177876	    117.89474165	    -12.46478004	      2.76726354	      0.33515340	    114.14973926	    527.29177876	   -117.89474165	     58.62506700	     -1.78077605	     48.77095075	    -34.16719849	   -120.17514744	    -29.66204701	      4.04996347	     -1.19778184	      0.18844530	     34.16719849	    120.17514744	     29.66204701	    -15.14067974	      0.81947582	     14.11945754	    303.42909884	     72.92804278	    128.41067148	    552.23722532
      0.11165033	      0.00853958	      0.00802273	     29.79145588	      7.23572845	    -12.45921584	     25.94211061	     60.95133098	      0.00000000	      0.00000000	      0.00000000	      0.00000000	      0.00000000	      0.00000000	      0.00000000	      0.00000000	      0.00000001	      0.00000000	      0.03237404	      0.02527951	      0.03126216	      0.03032042	      0.05736630	      0.05948480	      0.05864005	      0.05342683	      0.05025651	      0.04660371	      0.01525851	      0.01651186	      0.06550154	      0.04489616	      0.04413872	      0.00881165	      0.00536606	      0.01447485	     -0.04432501	     -0.00516273	     -0.00149764	     -0.04556096	     -0.10763928	     -0.10964254	      0.00000079	     -0.32847694	      0.00000060	     -0.00000086	     63.67540268	    286.49447630	     37.54304780	    -22.31243319	      1.61985062	     25.04001981	    -63.67540268	   -286.49447630	    -37.54304780	      8.54318131	     -2.14497726	      2.32079930	    -26.45588062	     64.46605727	     10.69336935	     -2.85492892	      0.61560135	    -10.81781545	     26.45588062	    -64.46605727	    -10.69336935	     -1.10184499	     -0.67439521	      1.38302214	   -126.00237403	   -546.63315355	    121.36203399	    -12.89753182	      3.00867531	      0.18916804	    126.00237403	    546.63315355	   -121.36203399	     60.40627186	     -1.98667805	     53.73932508	    -35.24919568	   -118.22323073	    -29.66972840	      3.99524406	     -1.22970933	      0.15423241	     35.24919568	    118.22323073	     29.66972840	    -15.09712751	      0.84539278	     14.56675190	    295.87687016	     70.49917948	    126.88392674	    573.94524661
      0.11268181	      0.00863505	      0.00817314	     30.27300189	      7.52925062	    -11.90899338	     28.02380576	     65.74312574	      0.00000000	      0.00000000	      0.00000000	      0.00000000	      0.00000000	      0.00000000	      0.00000000	      0.00000000	      0.00000001	      0.00000000	      0.03235573	      0.02524731	      0.03133138	      0.03036213	      0.05740303	      0.05947436	      0.05858227	      0.05341546	      0.05021480	      0.04653253	      0.01525851	      0.01651186	      0.06550154	      0.04489616	      0.04354820	      0.00752686	      0.00759218	      0.01587048	     -0.04371310	     -0.00533744	     -0.00248142	     -0.04576403	     -0.10837991	     -0.11100256	      0.00000079	     -0.32847694	      0.00000060	     -0.00000086	     59.54379468	    279.52895503	     37.94770953	    -22.31544177	      1.50367924	     23.30213940	    -59.54379468	   -279.52895503	    -37.94770953	      8.36670755	     -2.02945916	      2.45781534	    -23.90650472	     63.13810907	     11.65865222	     -3.28726017	      0.55145513	     -9.76425860	     23.90650472	    -63.13810907	    -11.65865222	     -1.04368388	     -0.62859009	      1.30122388	   -134.75499538	   -551.45794628	    122.94458996	    -13.03880751	      3.19197394	      0.06416329	    134.75499538	    551.45794628	   -122.94458996	     61.14467577	     -2.14386393	     57.36410300	    -33.69472010	   -111.24740849	    -28.12708637	      3.75936060	     -1.17902731	      0.16046350	     33.69472010	    111.24740849	     28.12708637	    -14.29013432	      0.81019486	     13.91362587	    288.30873875	     68.51179428	    119.59286369	    580.84434016
      0.11371329	      0.00873302	      0.00832434	     30.75757048	      6.63918592	    -12.43474043	     30.47731724	     70.34204712	      0.00000000	      0.00000000	      0.00000000	      0.00000000	      0.00000000	      0.00000000	      0.00000000	      0.00000000	      0.00000001	      0.00000000	      0.03233784	      0.02521570	      0.03140113	      0.03040365	      0.05744106	      0.05946467	      0.05852529	      0.05340531	      0.05017396	      0.04646212	      0.01525851	      0.01651186	      0.06550154	      0.04489616	      0.04297119	      0.00626546	      0.00983527	      0.01725953	     -0.04307968	     -0.00549945	     -0.00345171	     -0.04594536	     -0.10910501	     -0.11234773	      0.00000079	     -0.32847694	      0.00000060	     -0.00000086	     57.47975145	    278.42882800	     36.69256731	    -21.75682064	      1.44977010	     22.40292936	    -57.47975145	   -278.42882800	    -36.69256731	      8.27543289	     -1.96279754	      2.60890584	    -21.64186573	     63.11776181	     12.36415225	     -3.57546044	      0.49846360	     -8.82155155	     21.64186573	    -63.11776181	    -12.36415225	     -1.02766226	     -0.59072438	      1.23535658	   -141.55467241	   -549.57038627	    122.08419275	    -12.97363986	      3.32936578	     -0.03669154	    141.55467241	    549.57038627	   -122.08419275	     60.73037882	     -2.27658120	     60.14905010	    -31.77695795	   -103.12848445	    -26.37836763	      3.49024041	     -1.11648589	      0.15980341	     31.77695795	    103.12848445	     26.37836763	    -13.37277501	      0.76643208	     13.11385362	    286.65812143	     67.86084636	    111.09040301	    580.49107217
